HIERARCHY
ROOT Bip001_Pelvis
{
  OFFSET -0.518542 91.1688 -12.0061
  CHANNELS 6 Xposition Yposition Zposition Zrotation Xrotation Yrotation
  JOINT Bip001_Spine
  {
    OFFSET 1.44608e-005 10.4157 -0.0118244
    CHANNELS 3 Zrotation Xrotation Yrotation
    JOINT Bip001_L_Thigh
    {
      OFFSET 11.2582 -10.4157 0.0118432
      CHANNELS 3 Zrotation Xrotation Yrotation
      JOINT Bip001_L_Calf
      {
        OFFSET -0.720717 -44.8687 0.366937
        CHANNELS 3 Zrotation Xrotation Yrotation
        JOINT Bip001_L_Foot
        {
          OFFSET -0.664439 -41.3745 -3.62995
          CHANNELS 3 Zrotation Xrotation Yrotation
          JOINT Bip001_L_Toe0
          {
            OFFSET 0.0541048 -10.4146 13.4033
            CHANNELS 3 Zrotation Xrotation Yrotation
            End Site
            {
              OFFSET -1.04503e-005 0 7.70137
            }
          }
        }
      }
    }
    JOINT Bip001_R_Thigh
    {
      OFFSET -11.2582 -10.4156 0.0118122
      CHANNELS 3 Zrotation Xrotation Yrotation
      JOINT Bip001_R_Calf
      {
        OFFSET 0.72059 -44.8687 0.36676
        CHANNELS 3 Zrotation Xrotation Yrotation
        JOINT Bip001_R_Foot
        {
          OFFSET 0.664321 -41.3745 -3.62979
          CHANNELS 3 Zrotation Xrotation Yrotation
          JOINT Bip001_R_Toe0
          {
            OFFSET -0.05417 -10.4146 13.4033
            CHANNELS 3 Zrotation Xrotation Yrotation
            End Site
            {
              OFFSET -1.04873e-005 0 7.70137
            }
          }
        }
      }
    }
    JOINT Bip001_Spine1
    {
      OFFSET 1.90638e-005 14.8539 1.10727
      CHANNELS 3 Zrotation Xrotation Yrotation
      JOINT Bip001_Spine2
      {
        OFFSET 2.28934e-005 14.7848 -1.7233
        CHANNELS 3 Zrotation Xrotation Yrotation
        JOINT Bip001_Neck
        {
          OFFSET 2.24514e-005 15.6905 -0.498826
          CHANNELS 3 Zrotation Xrotation Yrotation
          JOINT Bip001_L_Clavicle
          {
            OFFSET 6.17691 -0.000591152 0.00852867
            CHANNELS 3 Zrotation Xrotation Yrotation
            JOINT Bip001_L_UpperArm
            {
              OFFSET 11.773 -0.0611878 0.00197697
              CHANNELS 3 Zrotation Xrotation Yrotation
              JOINT Bip001_L_Forearm
              {
                OFFSET 26.4515 0.0817569 -2.19579
                CHANNELS 3 Zrotation Xrotation Yrotation
                JOINT Bip001_L_Hand
                {
                  OFFSET 32.8679 0.156744 1.67111
                  CHANNELS 3 Zrotation Xrotation Yrotation
                  JOINT Bip001_L_Finger0
                  {
                    OFFSET 6.16272 -2.25228 6.01663
                    CHANNELS 3 Zrotation Xrotation Yrotation
                    End Site
                    {
                      OFFSET 4.30501 -1.46664 0.618137
                    }
                  }
                  JOINT Bip001_L_Finger1
                  {
                    OFFSET 11.2958 -0.718383 -0.201959
                    CHANNELS 3 Zrotation Xrotation Yrotation
                    End Site
                    {
                      OFFSET 6.31956 -0.405168 -0.0802288
                    }
                  }
                }
              }
            }
          }
          JOINT Bip001_R_Clavicle
          {
            OFFSET -6.17691 -0.000574027 0.00851165
            CHANNELS 3 Zrotation Xrotation Yrotation
            JOINT Bip001_R_UpperArm
            {
              OFFSET -11.773 -0.0611516 0.00194365
              CHANNELS 3 Zrotation Xrotation Yrotation
              JOINT Bip001_R_Forearm
              {
                OFFSET -26.4514 0.0822336 -2.19736
                CHANNELS 3 Zrotation Xrotation Yrotation
                JOINT Bip001_R_Hand
                {
                  OFFSET -32.8678 0.156816 1.67144
                  CHANNELS 3 Zrotation Xrotation Yrotation
                  JOINT Bip001_R_Finger0
                  {
                    OFFSET -6.1627 -2.25225 6.01669
                    CHANNELS 3 Zrotation Xrotation Yrotation
                    End Site
                    {
                      OFFSET -4.305 -1.46662 0.618133
                    }
                  }
                  JOINT Bip001_R_Finger1
                  {
                    OFFSET -11.2958 -0.718346 -0.201993
                    CHANNELS 3 Zrotation Xrotation Yrotation
                    End Site
                    {
                      OFFSET -6.31953 -0.405147 -0.0802474
                    }
                  }
                }
              }
            }
          }
          JOINT Bip001_Head
          {
            OFFSET 1.11782e-005 11.4912 2.09908
            CHANNELS 3 Zrotation Xrotation Yrotation
            End Site
            {
              OFFSET 2.95144e-005 21.2823 -2.83069e-005
            }
          }
        }
      }
    }
  }
}
MOTION
Frames:	6
Frame Time:	0.0333333
0.28919 90.5228 -11.0555 4.02371 -2.73074 -2.16616 -1.1362 2.94549 1.56171 -7.04587 -12.5606 0.312014 0.0607512 23.5586 -0.142636 1.79156 -11.2594 15.8793 -2.04549e-007 8.09012e-008 3.87095e-010 -6.15462 -28.6725 0.00974064 -0.103909 33.2738 0.837617 0.279106 -7.79946 -17.548 -4.70448e-007 -2.81696e-008 -1.67482e-006 -2.30745 5.85434 3.20638 -2.30746 5.85442 3.2062 -10.2611 -0.868074 7.8327 -15.7216 4.55152 -7.88135 -0.076822 65.5084 -18.7449 -5.5063 4.83608 -79.0918 69.5965 9.27372 -42.5694 -3.18055e-015 -1.59028e-015 -0 -1.59028e-015 -1.59028e-015 -0 41.8284 -3.89882 -8.60755 -11.73 62.0803 53.888 2.6539 0.742446 27.7123 -22.3818 -32.3164 0.687928 6.36111e-015 6.36111e-015 -3.18055e-015 6.36111e-015 3.18056e-015 -3.18055e-015 -4.7235 -1.81423 5.77381 
0.212975 90.6065 -11.0874 3.91477 -2.6706 -2.61584 -1.13265 2.93652 1.49709 -6.82217 -12.4232 0.687192 0.0749487 23.1039 0.292774 1.98544 -10.7662 16.2791 -2.04549e-007 8.09012e-008 3.87098e-010 -5.86358 -28.7442 0.465142 -0.0786604 32.9229 1.20795 0.543774 -7.04394 -17.6281 -4.70448e-007 -2.81696e-008 -1.67482e-006 -2.36517 5.8095 3.19715 -2.36517 5.80962 3.19689 -9.93478 0.280016 7.31088 -15.8494 3.31164 -7.74572 -0.675342 65.7551 -18.7416 -5.50041 4.7983 -78.6596 69.7843 8.67391 -42.7265 -3.18055e-015 3.97569e-015 -6.36111e-015 -1.59028e-015 1.59028e-015 -6.36111e-015 41.7281 -4.35695 -7.37247 -11.7945 62.1593 53.8571 2.63719 0.734898 27.5298 -22.0596 -32.5767 0.759221 6.36111e-015 6.36111e-015 6.36111e-015 -7.06225e-031 3.18056e-015 1.27222e-014 -4.80566 -1.70069 5.80965 
0.069169 90.769 -11.3972 3.19168 -2.25034 -3.72935 -1.03642 2.9773 1.36083 -6.10386 -13.2189 0.886164 0.090466 23.3173 0.729103 2.26977 -10.3496 17.5876 -2.04549e-007 8.09012e-008 3.87092e-010 -4.27715 -29.6425 2.88052 -0.0563739 32.806 1.54639 1.75577 -6.52861 -18.4956 -4.70448e-007 -2.81696e-008 -1.67482e-006 -2.28264 5.84413 3.14262 -2.28261 5.84425 3.14235 -8.52566 0.641428 4.41158 -16.9527 2.19634 -4.97059 -1.38865 66.0628 -19.3005 -5.48305 4.70179 -77.6284 69.9885 7.9676 -43.1154 1.59028e-015 1.59028e-015 -3.18055e-015 1.59028e-015 5.56597e-015 -0 39.3118 -2.45778 -4.77408 -12.1763 61.9536 55.5576 2.59249 0.708654 27.0147 -19.8978 -32.5748 2.74558 -1.05934e-030 6.36111e-015 9.54166e-015 -1.05934e-030 9.54167e-015 6.36111e-015 -4.93472 -1.51509 5.9034 
-0.365837 91.0072 -11.7827 2.08998 -2.10755 -5.32023 -0.925286 3.03735 0.945012 -4.71662 -13.9373 1.62516 0.107303 23.7257 1.14983 2.42734 -10.0264 19.3382 -2.04549e-007 8.09012e-008 3.87095e-010 -2.09087 -31.6084 4.91442 -0.0521999 34.4383 1.83122 3.96507 -3.77297 -18.6261 -4.70448e-007 -2.81696e-008 -1.67482e-006 -2.21615 5.90734 2.60111 -2.21613 5.90743 2.60087 -3.66888 0.599466 -2.09589 -21.317 0.242773 0.944207 -6.48832 66.8551 -15.3469 -5.46631 4.61607 -76.764 70.8411 7.39838 -43.8381 4.77083e-015 -6.36111e-015 -6.36111e-015 -7.06225e-031 -6.36111e-015 -6.36111e-015 33.4223 1.75822 1.10733 -12.2197 60.549 55.725 2.76796 0.80937 29.028 -15.313 -27.3341 7.93525 0 9.54166e-015 -0 6.36111e-015 9.54167e-015 -3.18055e-015 -4.93678 -1.55106 5.97428 
-0.748243 91.4911 -12.401 -0.0863553 -1.48317 -7.54069 -0.58952 3.04344 0.130848 -1.82559 -15.1579 4.63775 0.128569 24.3405 1.58209 2.6415 -9.55625 19.9233 -2.04549e-007 8.09012e-008 3.87095e-010 1.95422 -34.3577 9.15206 -0.052785 36.0479 2.03815 7.52713 -0.459916 -19.112 -4.70448e-007 -2.81696e-008 -1.67482e-006 -1.69773 5.85939 1.29122 -1.69774 5.85952 1.29099 2.48565 -1.33142 -10.4912 -28.0412 -2.07562 8.78843 -16.8122 67.6541 -4.96458 -5.45998 4.58606 -76.4615 72.295 7.37844 -43.7985 7.95139e-015 7.95139e-015 -0 6.36111e-015 4.77083e-015 -0 25.3312 6.86081 8.0305 -14.2539 58.0723 58.1266 2.97768 0.94085 31.4903 -10.7796 -22.4289 11.2486 3.18055e-015 6.36111e-015 -3.18055e-015 3.18055e-015 0 -1.59028e-015 -4.95202 -1.60717 6.03625 
-1.05325 92.2058 -13.3033 -3.16862 0.022289 -9.99316 -0.0742689 3.00968 -1.0758 2.49149 -16.9776 8.96796 0.153125 25.048 2.0128 2.45647 -9.43886 19.5973 -2.04549e-007 8.09012e-008 3.87098e-010 7.71414 -37.8204 14.7172 -0.0174836 34.8689 2.27996 7.2587 5.84313 -10.9258 -4.70448e-007 -2.81696e-008 -1.67482e-006 -0.716853 5.72976 -0.800468 -0.716839 5.72986 -0.800647 9.03069 -4.78628 -19.4627 -34.765 -5.44246 17.3059 -28.6222 68.0452 6.26719 -5.44642 4.52187 -75.8011 72.8303 7.09538 -41.1161 -3.18055e-015 0 -6.36111e-015 -6.36111e-015 1.59028e-015 -9.54166e-015 16.6992 11.5257 15.7144 -17.9049 54.4097 61.8859 3.14099 1.05233 33.4568 -5.90497 -23.5206 13.7419 -3.18055e-015 -9.54166e-015 -0 -6.36111e-015 -6.36111e-015 -0 -4.90104 -1.56017 6.09851 
